<svg width="14" height="18" viewBox="0 0 14 18" fill="none" xmlns="http://www.w3.org/2000/svg">
<path d="M13 7.14483C13 11.9241 7 16.0207 7 16.0207C7 16.0207 1 11.9241 1 7.14483C1 5.51512 1.63214 3.95216 2.75736 2.79978C3.88258 1.6474 5.4087 1 7 1C8.5913 1 10.1174 1.6474 11.2426 2.79978C12.3679 3.95216 13 5.51512 13 7.14483Z" stroke="#B1B1E5" stroke-width="2" stroke-linecap="round" stroke-linejoin="round"/>
<path d="M7 9.19311C8.10457 9.19311 9 8.27607 9 7.14483C9 6.0136 8.10457 5.09656 7 5.09656C5.89543 5.09656 5 6.0136 5 7.14483C5 8.27607 5.89543 9.19311 7 9.19311Z" stroke="#B1B1E5" stroke-width="2" stroke-linecap="round" stroke-linejoin="round"/>
</svg>
