<svg width="17" height="15" viewBox="0 0 17 15" fill="none" xmlns="http://www.w3.org/2000/svg">
<path d="M11.6667 13.2897V11.9241C11.6667 11.1998 11.3857 10.5052 10.8856 9.993C10.3855 9.48083 9.70724 9.1931 9 9.1931H3.66667C2.95942 9.1931 2.28115 9.48083 1.78105 9.993C1.28095 10.5052 1 11.1998 1 11.9241V13.2897" stroke="#B1B1E5" stroke-width="2" stroke-linecap="round" stroke-linejoin="round"/>
<path d="M6.33335 6.46207C7.80611 6.46207 9.00002 5.23934 9.00002 3.73103C9.00002 2.22273 7.80611 1 6.33335 1C4.86059 1 3.66669 2.22273 3.66669 3.73103C3.66669 5.23934 4.86059 6.46207 6.33335 6.46207Z" stroke="#B1B1E5" stroke-width="2" stroke-linecap="round" stroke-linejoin="round"/>
<path d="M15.6667 13.2897V11.9241C15.6662 11.319 15.4696 10.7312 15.1076 10.253C14.7456 9.77471 14.2388 9.43314 13.6667 9.28186" stroke="#B1B1E5" stroke-width="2" stroke-linecap="round" stroke-linejoin="round"/>
<path d="M11 1.08876C11.5736 1.23917 12.082 1.58083 12.4451 2.05986C12.8082 2.53889 13.0052 3.12804 13.0052 3.73445C13.0052 4.34086 12.8082 4.93002 12.4451 5.40905C12.082 5.88808 11.5736 6.22973 11 6.38014" stroke="#B1B1E5" stroke-width="2" stroke-linecap="round" stroke-linejoin="round"/>
</svg>
