<svg width="92" height="81" viewBox="0 0 92 81" fill="none" xmlns="http://www.w3.org/2000/svg">
<path d="M20.3171 18.9931C20.3171 24.0991 19.1535 28.6723 17.3232 31.9339C15.475 35.2273 13.0789 36.9862 10.6585 36.9862C8.23819 36.9862 5.84206 35.2273 3.99388 31.9339C2.16355 28.6723 1 24.0991 1 18.9931C1 13.8871 2.16355 9.31391 3.99388 6.05234C5.84206 2.75895 8.23819 1 10.6585 1C13.0789 1 15.475 2.75895 17.3232 6.05234C19.1535 9.31391 20.3171 13.8871 20.3171 18.9931Z" stroke="#5152B7" stroke-width="2"/>
<path d="M90.9999 18.9931C90.9999 24.0991 89.8364 28.6723 88.0061 31.9339C86.1579 35.2273 83.7617 36.9862 81.3414 36.9862C78.9211 36.9862 76.5249 35.2273 74.6767 31.9339C72.8464 28.6723 71.6829 24.0991 71.6829 18.9931C71.6829 13.8871 72.8464 9.31391 74.6767 6.05234C76.5249 2.75895 78.9211 1 81.3414 1C83.7617 1 86.1579 2.75895 88.0061 6.05234C89.8364 9.31391 90.9999 13.8871 90.9999 18.9931Z" stroke="#5152B7" stroke-width="2"/>
<path d="M88.0733 81C88.0733 65.5741 68.5582 59.2138 46.5611 59.2138C24.564 59.2138 5.60986 65.5741 5.60986 81" stroke="#5152B7" stroke-width="2"/>
<path d="M87 39.2319C89.2863 42.63 90.75 44.9962 90.75 47.0462C90.75 49.0887 89.0681 50.75 87 50.75C84.9319 50.75 83.25 49.0888 83.25 47.0469C83.25 44.9963 84.7131 42.63 87 39.2319ZM87 37C83.9563 41.4981 82 44.3119 82 47.0469C82 49.7831 84.2369 52 87 52C89.7631 52 92 49.7831 92 47.0469C92 44.3119 90.0437 41.4981 87 37Z" fill="#5152B7"/>
</svg>
